<svg width="42" height="42" viewBox="0 0 100 100" fill="none" xmlns="http://www.w3.org/2000/svg">
    <path d="M5.0462 69.4853H0V100H5.0462V69.4853ZM100 69.4853H94.9538V100H100V69.4853Z" fill="#ED2B3B"></path>
    <path d="M100 100V94.9142H0V99.9979L100 100ZM5.0462 0H0V30.5147H5.0462V0ZM94.9538 30.5147H100V0H94.9538V30.5147Z" fill="#ED2B3B"></path>
    <path d="M0 0.0122784V5.09806H100V0.0143283H0V0.0122784Z" fill="#ED2B3B"></path>
    <path d="M31.3542 54.5615C31.3542 59.3474 31.3542 63.4523 31.6121 65.6942C31.7753 67.1434 32.0877 68.2923 33.6443 68.4983C34.5218 68.6188 35.4062 68.6869 36.2925 68.7044C36.854 68.7044 37.1138 68.8563 37.1138 69.1164C37.1138 69.3766 36.7031 69.635 36.131 69.635C32.7037 69.635 29.4413 69.4849 27.9812 69.4849C26.7932 69.4849 23.5291 69.635 21.4986 69.635C20.8177 69.635 20.4176 69.4849 20.4176 69.1164C20.4176 68.748 20.6229 68.7044 21.2389 68.7044C21.8672 68.7026 22.4937 68.6345 23.1079 68.4983C24.1889 68.2923 24.4592 67.1452 24.6101 65.6401C24.8698 63.475 24.8698 59.3474 24.8698 54.5615V33.2476C22.9043 33.2476 19.6823 33.41 17.143 33.4537C14.1386 33.5619 12.8961 33.8203 12.1187 34.9692C11.7256 35.5245 11.4273 36.1391 11.2325 36.7886C11.1237 37.2007 10.9727 37.4067 10.6604 37.4067C10.3462 37.4067 10.1953 37.1448 10.1953 36.5721C10.1953 35.7497 11.1781 31.0162 11.2746 30.5937C11.4273 29.9232 11.5905 29.6089 11.8905 29.6089C12.6171 29.8883 13.3647 30.0978 14.128 30.2375C15.6302 30.3876 17.5975 30.4959 19.3155 30.4959H39.8479C41.0446 30.4926 42.2397 30.4062 43.4244 30.2375C43.8859 30.1187 44.3545 30.0332 44.8283 29.9756C45.1863 29.9756 45.239 30.2794 45.239 31.0598C45.239 32.1424 45.088 35.7392 45.088 37.0819C45.088 37.6005 44.9266 37.9148 44.6142 37.9148C44.2983 37.9148 44.0948 37.6546 44.0509 36.8322C44.0509 36.6803 43.9982 36.4202 43.9982 36.2578C43.8894 34.9151 42.4943 33.4537 37.8701 33.3559C36.5294 33.3559 34.4007 33.2476 31.3314 33.1935L31.3542 54.5615ZM52.463 45.4088C52.463 37.5149 52.463 36.0518 52.3647 34.3948C52.2682 32.7378 51.847 31.7967 50.129 31.4265C49.4618 31.3101 48.7846 31.2598 48.1074 31.2764C47.5353 31.2764 47.2317 31.1681 47.2317 30.8102C47.2317 30.454 47.5897 30.3335 48.3671 30.3335C51.1223 30.3335 54.3864 30.4959 55.8342 30.4959C57.282 30.4959 60.7181 30.3335 63.8313 30.3335C70.3139 30.3335 78.9603 30.3335 84.6321 36.27C87.9818 39.8444 89.7867 44.5846 89.6582 49.47C89.7361 54.8566 87.6965 60.0605 83.974 63.9726C81.5856 66.4188 76.1928 70.1117 66.597 70.1117C64.728 70.1117 62.5993 69.9493 60.6321 69.7974C58.6666 69.6472 56.8397 69.4831 55.5429 69.4831H52.5929C51.3487 69.4831 50.0535 69.5809 49.0146 69.5809C48.3337 69.5809 47.9354 69.4307 47.9354 69.0623C47.9354 68.6939 48.1407 68.6503 48.7567 68.6503C49.3849 68.6485 50.0114 68.5804 50.6256 68.4442C51.7066 68.2382 51.9225 67.091 52.1278 65.586C52.3876 63.4209 52.3876 59.2932 52.3876 54.5056L52.463 45.4088ZM58.9456 51.127C58.9456 56.6393 58.9456 60.6464 59.0544 61.6329C59.1071 62.932 59.2054 65.0115 59.6265 65.586C60.2969 66.5707 62.3186 67.6637 66.425 67.6637C71.7073 67.6637 75.2416 66.5812 78.311 63.9168C81.6295 61.0585 82.6333 56.3372 82.6333 50.9751C82.6333 44.3699 79.8886 40.1462 77.6529 37.9794C72.8866 33.41 66.9655 32.7814 62.924 32.7814C61.7885 32.7603 60.6549 32.8841 59.5511 33.1498C59.3312 33.2222 59.1458 33.3725 59.0303 33.5722C58.9147 33.7719 58.8771 34.0069 58.9246 34.2324V44.63L58.9456 51.127Z" fill="#ED2B3B"></path>
</svg>